<?xml version="1.0" standalone="no"?><!DOCTYPE svg PUBLIC "-//W3C//DTD SVG 1.1//EN" "http://www.w3.org/Graphics/SVG/1.1/DTD/svg11.dtd"><svg t="1523414409202" class="icon" style="" viewBox="0 0 1024 1024" version="1.1" xmlns="http://www.w3.org/2000/svg" p-id="732" xmlns:xlink="http://www.w3.org/1999/xlink" width="200" height="200"><defs><style type="text/css"></style></defs><path d="M512 1024C230.4 1024 0 793.6 0 512S230.4 0 512 0s512 230.4 512 512-230.4 512-512 512zM512 25.6C245.76 25.6 25.6 240.64 25.6 512c0 266.24 215.04 486.4 486.4 486.4 266.24 0 486.4-215.04 486.4-486.4 0-266.24-220.16-486.4-486.4-486.4z" p-id="733"></path><path d="M512 517.12c-5.12 0-15.36-5.12-15.36-15.36V102.4c0-5.12 5.12-15.36 15.36-15.36s15.36 5.12 15.36 15.36v399.36c0 10.24-10.24 15.36-15.36 15.36z" p-id="734"></path><path d="M798.72 517.12h-281.6c-5.12 0-15.36-5.12-15.36-15.36s5.12-15.36 15.36-15.36h281.6c5.12 0 15.36 5.12 15.36 15.36s-5.12 15.36-15.36 15.36z" p-id="735"></path></svg>