<?xml version="1.0" standalone="no"?><!DOCTYPE svg PUBLIC "-//W3C//DTD SVG 1.1//EN" "http://www.w3.org/Graphics/SVG/1.1/DTD/svg11.dtd"><svg t="1523407001841" class="icon" style="" viewBox="0 0 1113 1024" version="1.1" xmlns="http://www.w3.org/2000/svg" p-id="1125" xmlns:xlink="http://www.w3.org/1999/xlink" width="217.3828125" height="200"><defs><style type="text/css"></style></defs><path d="M1074.438278 379.225714H38.961694a16.697869 16.697869 0 0 0-16.697869 16.697869v589.031234a16.697869 16.697869 0 0 0 16.697869 16.697869h339.718139a178.013196 178.013196 0 0 1 176.858259-177.915792 88.985725 88.985725 0 1 1 2.323787 0A178.013196 178.013196 0 0 1 734.706224 1001.652686h339.732054a16.697869 16.697869 0 0 0 16.697869-16.697869V395.923583a16.697869 16.697869 0 0 0-16.697869-16.697869z" fill="#FF505E" p-id="1126"></path><path d="M1074.438278 1023.916511H38.961694a38.961694 38.961694 0 0 1-38.961694-38.961694V395.923583a38.961694 38.961694 0 0 1 38.961694-38.961694h1035.476584a38.961694 38.961694 0 0 1 38.961694 38.961694v589.031234a38.961694 38.961694 0 0 1-38.961694 38.961694zM44.52765 979.388861h1024.344672V401.489539H44.52765z" fill="#333333" p-id="1127"></path><path d="M556.693028 846.028549A111.24955 111.24955 0 1 1 667.914749 734.848573a111.319125 111.319125 0 0 1-111.221721 111.179976z m0-177.971451A66.791475 66.791475 0 1 0 623.387099 734.848573a66.791475 66.791475 0 0 0-66.694071-66.791475z" fill="#333333" p-id="1128"></path><path d="M734.706224 1024a22.263825 22.263825 0 0 1-22.263825-22.263825 155.763285 155.763285 0 0 0-311.512656 0 22.263825 22.263825 0 0 1-44.52765 0c0-110.428572 89.848449-200.27702 200.277021-200.27702S756.970049 891.307603 756.970049 1001.736175a22.263825 22.263825 0 0 1-22.263825 22.263825zM556.693028 222.64145A111.319125 111.319125 0 1 1 667.914749 111.461474a111.319125 111.319125 0 0 1-111.221721 111.179976z m0-177.971451A66.791475 66.791475 0 1 0 623.387099 111.461474a66.791475 66.791475 0 0 0-66.694071-66.791475z" fill="#333333" p-id="1129"></path><path d="M734.706224 400.626816a22.263825 22.263825 0 0 1-22.263825-22.263825 155.763285 155.763285 0 1 0-311.512656 0 22.263825 22.263825 0 1 1-44.52765 0c0-110.442487 89.848449-200.290935 200.277021-200.290936S756.970049 267.920504 756.970049 378.362991a22.263825 22.263825 0 0 1-22.263825 22.263825z" fill="#333333" p-id="1130"></path></svg>