<?xml version="1.0" standalone="no"?><!DOCTYPE svg PUBLIC "-//W3C//DTD SVG 1.1//EN" "http://www.w3.org/Graphics/SVG/1.1/DTD/svg11.dtd"><svg t="1523364021280" class="icon" style="" viewBox="0 0 1484 1024" version="1.1" xmlns="http://www.w3.org/2000/svg" p-id="991" xmlns:xlink="http://www.w3.org/1999/xlink" width="289.84375" height="200"><defs><style type="text/css"></style></defs><path d="M1351.217557 1024a29.691379 29.691379 0 0 1-13.268335-3.136152l-201.623023-100.653776H643.115275a49.232018 49.232018 0 0 1-49.176347-49.176347V390.256066a49.232018 49.232018 0 0 1 49.176347-49.176347h792.555699a49.232018 49.232018 0 0 1 49.176347 49.176347v480.777659a49.232018 49.232018 0 0 1-49.176347 49.176347h-54.762038v74.098549a29.691379 29.691379 0 0 1-29.691379 29.691379z m-697.89587-163.172686h490.019101a29.839836 29.839836 0 0 1 13.249778 3.117595l164.935611 82.356463v-55.782679a29.691379 29.691379 0 0 1 29.69138-29.691379h74.228448V400.462478H653.321687z" fill="#FFAE45" p-id="992"></path><path d="M385.987931 623.685979h571.744622a22.268534 22.268534 0 0 0 22.268534-22.268535V51.959914a22.268534 22.268534 0 0 0-22.268534-22.268535H51.959914a22.268534 22.268534 0 0 0-22.268535 22.268535v549.45753a22.268534 22.268534 0 0 0 22.268535 22.268535h96.496982V742.284482z" fill="#FFD9B0" p-id="993"></path><path d="M148.456896 771.975861a29.691379 29.691379 0 0 1-29.691379-29.691379v-88.907124H51.959914a51.959914 51.959914 0 0 1-51.959914-51.959914V51.959914A51.959914 51.959914 0 0 1 51.959914 0h905.772639a51.959914 51.959914 0 0 1 51.959914 51.959914v549.45753a51.959914 51.959914 0 0 1-51.959914 51.959914H393.05819L161.743789 768.876824A29.821279 29.821279 0 0 1 148.456896 771.975861z m-89.074137-177.981261h89.074137a29.691379 29.691379 0 0 1 29.69138 29.691379v70.609811l194.626991-97.165038a29.691379 29.691379 0 0 1 13.268335-3.136152H950.309708V59.382759H59.382759z" fill="#FFAE45" p-id="994"></path><path d="M326.697958 356.148094H207.839655a29.691379 29.691379 0 1 1 0-59.382758h118.858303a29.691379 29.691379 0 0 1 0 59.382758zM564.266106 356.148094H445.370689a29.691379 29.691379 0 0 1 0-59.382758h118.765517a29.691379 29.691379 0 0 1 0 59.382758zM801.852812 356.148094h-118.858303a29.691379 29.691379 0 0 1 0-59.382758h118.858303a29.691379 29.691379 0 0 1 0 59.382758z" fill="#FFAE45" p-id="995"></path></svg>