<?xml version="1.0" standalone="no"?><!DOCTYPE svg PUBLIC "-//W3C//DTD SVG 1.1//EN" "http://www.w3.org/Graphics/SVG/1.1/DTD/svg11.dtd"><svg t="1523364007342" class="icon" style="" viewBox="0 0 1070 1024" version="1.1" xmlns="http://www.w3.org/2000/svg" p-id="868" xmlns:xlink="http://www.w3.org/1999/xlink" width="208.984375" height="200"><defs><style type="text/css"></style></defs><path d="M535.078124 256.468831m-233.208989 0a233.208989 233.208989 0 1 0 466.417979 0 233.208989 233.208989 0 1 0-466.417979 0Z" fill="#FFD9B0" p-id="869"></path><path d="M535.078124 512.937662c-141.419838 0-256.468831-115.048993-256.468831-256.468831S393.658286 0 535.078124 0s256.468831 115.048993 256.468832 256.468831-115.048993 256.468831-256.468832 256.468831z m0-466.417978c-115.761325 0-209.949147 94.187822-209.949147 209.949147s94.187822 209.949147 209.949147 209.949148 209.949147-94.187822 209.949148-209.949148S650.83945 46.519684 535.078124 46.519684z" fill="#FFAE45" p-id="870"></path><path d="M1046.896407 1024H23.259842a23.259842 23.259842 0 0 1-23.259842-23.259842 535.223498 535.223498 0 0 1 1028.099547-208.291884 532.068882 532.068882 0 0 1 42.056702 208.291884 23.259842 23.259842 0 0 1-23.259842 23.259842z m-999.824302-46.519684h976.012039C1010.901802 718.845412 796.649583 512.181718 535.078124 512.181718S59.23991 718.845412 47.072105 977.480316z" fill="#FFAE45" p-id="871"></path><path d="M663.036329 805.61916a23.259842 23.259842 0 0 1-11.629921-3.125541l-116.299209-67.148256-116.299209 67.148256a23.259842 23.259842 0 0 1-34.889763-20.134301V574.750692a23.259842 23.259842 0 0 1 34.889763-20.148838l116.299209 67.162793 116.299209-67.162793a23.259842 23.259842 0 0 1 34.889763 20.148838v207.608626a23.259842 23.259842 0 0 1-23.259842 23.259842z m-127.92913-120.398757a23.405216 23.405216 0 0 1 11.629921 3.111004l93.039367 53.788385v-127.085961l-93.039367 53.788384a23.259842 23.259842 0 0 1-23.259842 0l-93.039367-53.788384v127.027811l93.039367-53.788384a23.361604 23.361604 0 0 1 11.600846-3.052855z" fill="#FFAE45" p-id="872"></path></svg>